<svg id="logo" xmlns="http://www.w3.org/2000/svg" viewBox="0 0 372.75 99.57"><defs><style>.cls-1{fill:#231f20;}.cls-2,.cls-3{fill:#589038;}.cls-2{fill-rule:evenodd;}</style></defs><title>logo</title><g id="MARY"><path class="cls-1" d="M341.84,68.14l-4.35-.75v-.22h16.77v.22l-6.45.75a67.1,67.1,0,0,0,4.07,7.44,79.38,79.38,0,0,0,4.7,6.9,67.85,67.85,0,0,0,5.35-7,83.44,83.44,0,0,0,4.59-7.33l-6.32-.75v-.22h12.55v.26l-3.71.71q-1.27,1.51-2.46,3.1t-3.06,4.27q-1.88,2.67-3,4.28t-3.23,4.9q-.17,2.65-.17,5.91a31,31,0,0,0,.67,7.16l5.35.75v.22H346.84v-.22l5.24-.75a24.35,24.35,0,0,0,.55-3.71q.2-2.35.2-4.42,0-1.55-.13-4.85-1.25-2.29-3.18-5.42t-4-6.14Q343.5,70.21,341.84,68.14Z"/><path class="cls-1" d="M337.74,96.71A19.93,19.93,0,0,1,336,94.53q-1-1.34-2.57-3.71t-2.57-3.74A16.85,16.85,0,0,0,329.1,85a7.09,7.09,0,0,0-2.44-1.55v-.09a7.16,7.16,0,0,0,3.05-1.12,7.26,7.26,0,0,0,2.42-2.55,7.18,7.18,0,0,0,.93-3.65,9,9,0,0,0-4.26-7.21,11.43,11.43,0,0,0-6.44-1.61H308.21v.22l5.17.75q.26,1.9.43,5.21t.17,5.87v6.66q0,1.81-.19,5.76t-.52,6.12l-5.07.75v.22h16v-.22l-5.37-.75a54.12,54.12,0,0,1-.54-6.66v-4a23.57,23.57,0,0,1,.13-2.59,11.39,11.39,0,0,1,2.11-.15,6.24,6.24,0,0,1,2.25.31,5.47,5.47,0,0,1,1.69,1.24A18.28,18.28,0,0,1,326.2,88q1.07,1.49,2.63,3.77t2.29,3.29a14.12,14.12,0,0,0,1.45,1.73,6.67,6.67,0,0,0,5,1.9h3.75v-.22A5.19,5.19,0,0,1,337.74,96.71ZM325.29,82.24a9.08,9.08,0,0,1-4.45.95,17.2,17.2,0,0,1-2.44-.13q-.13-1.62-.13-3.49V76q0-1.55.16-3.88t.35-3.58a8.73,8.73,0,0,1,2-.17,6.94,6.94,0,0,1,2.69.57,8.14,8.14,0,0,1,4.29,4.17,8.09,8.09,0,0,1,0,6.63A5.58,5.58,0,0,1,325.29,82.24Z"/><path class="cls-1" d="M303.83,97.76a81.17,81.17,0,0,1-4.23-8.64l-9.33-22.27h-1.7l-10,25.39a42.82,42.82,0,0,1-2.65,5.52l-4,.75v.22H284v-.22l-5.65-.75a16.54,16.54,0,0,1,.64-2.52q.48-1.51,1-2.91t1.39-3.58h13.52a29.14,29.14,0,0,1,3.13,9l-5.86.75v.22h15.22v-.22ZM288.16,87.61q-1.53,0-3.22-.06t-3-.24q.28-.69,1.12-2.86t1.62-4.09q.78-1.92,1.74-4.12T288,72.91q1.62,3,3.58,7.47t2.78,6.93A51.61,51.61,0,0,1,288.16,87.61Z"/><path class="cls-1" d="M225.58,67.17h9.27q1.16,2.59,2,4.23t2,3.84l6.06,11.23a56.76,56.76,0,0,0,3.75,6.08q1.25-2,4-7.24l5.52-10.37a74.68,74.68,0,0,0,3.62-7.76H271v.22l-5.73.8q-.13,1.9-.13,3.79t.38,8.12q.38,6.13.92,11.43a29.67,29.67,0,0,0,1,6.24l4,.75v.22H256.56v-.22l5.13-.75q.17-1.64.17-4.42,0-1.53-.11-4t-.33-5.67q-.23-3.2-.55-5.92a26.64,26.64,0,0,0-.6-3.66q-1,1.62-2.11,3.71l-8.39,15.72q-2,3.86-2.65,5.52h-.3q-.45-1-1.55-3.17t-1.77-3.41l-7-13q-1.79-3.32-3-5.3-.15.86-.45,3.92t-.57,6.64q-.27,3.58-.41,6.1t-.14,4q0,1,.09,3l4.1.8v.22H225.53v-.22l4.1-.8a45.55,45.55,0,0,0,.82-6q.52-5.07.91-10.42t.39-7.75q0-.84-.09-2.61a9,9,0,0,0-2.41-2.78l-3.66-.8Z"/></g><g id="Havana"><path class="cls-1" d="M205.62,97.76a81.18,81.18,0,0,1-4.23-8.64l-9.33-22.27h-1.7l-10,25.39a42.85,42.85,0,0,1-2.65,5.52l-4,.75v.22H185.8v-.22l-5.65-.75a16.54,16.54,0,0,1,.64-2.52q.49-1.51,1-2.91t1.39-3.58h13.52a29.14,29.14,0,0,1,3.13,9l-5.86.75v.22h15.22v-.22ZM189.94,87.61q-1.53,0-3.22-.06t-3-.24q.28-.69,1.12-2.86t1.62-4.09q.78-1.92,1.74-4.12t1.54-3.34q1.62,3,3.58,7.47t2.78,6.93A51.61,51.61,0,0,1,189.94,87.61Z"/><path class="cls-1" d="M133.76,67.39v-.22h10.89q1.08,1.47,2.79,3.54t3,3.56L160.15,85l3,3.23q1.07,1.14,2.77,2.78.13-1.49.17-2.78t0-2.44V76.49a57.15,57.15,0,0,0-.5-8.3l-5.24-.8v-.22h12.83v.22l-5.24.84a59.32,59.32,0,0,0-.41,7.72V99.57h-.22q-3.3-4.18-6.53-7.83L147.63,77q-2.93-3.13-5-5a53.65,53.65,0,0,0-.3,5.48V91.19a59.07,59.07,0,0,0,.43,6.53l5.48.8v.22H135.12v-.22l5.3-.75a37.18,37.18,0,0,0,.37-4.42q.11-2.87.11-5.11V77.67q0-1.88-.06-3.72t-.24-3.65l-2.87-2.11Z"/><path class="cls-1" d="M129.73,97.76a81.18,81.18,0,0,1-4.23-8.64l-9.33-22.27h-1.7l-10,25.39a42.85,42.85,0,0,1-2.65,5.52l-4,.75v.22h12.05v-.22l-5.65-.75a16.54,16.54,0,0,1,.64-2.52q.49-1.51,1-2.91t1.39-3.58h13.52a29.14,29.14,0,0,1,3.13,9l-5.86.75v.22h15.22v-.22ZM114.06,87.61q-1.53,0-3.22-.06t-3-.24q.28-.69,1.12-2.86t1.62-4.09q.78-1.92,1.74-4.12t1.54-3.34q1.62,3,3.58,7.47t2.78,6.93A51.61,51.61,0,0,1,114.06,87.61Z"/><path class="cls-1" d="M71.85,97.76a81.17,81.17,0,0,1-4.23-8.64L58.29,66.85h-1.7l-10,25.39A42.82,42.82,0,0,1,44,97.76l-4,.75v.22H52v-.22l-5.65-.75A16.54,16.54,0,0,1,47,95.24q.48-1.51,1-2.91t1.39-3.58H62.95a29.14,29.14,0,0,1,3.13,9l-5.86.75v.22H75.43v-.22ZM56.18,87.61q-1.53,0-3.22-.06t-3-.24q.28-.69,1.12-2.86t1.62-4.09q.78-1.92,1.74-4.12T56,72.91q1.62,3,3.58,7.47t2.78,6.93A51.61,51.61,0,0,1,56.18,87.61Z"/><path class="cls-1" d="M0,67.17H15.72v.22L10,68.14a34.16,34.16,0,0,0-.4,4.18q-.16,3-.16,5.09,0,1.81.13,4.46a54.34,54.34,0,0,0,9.44.6q3.13,0,5.86-.13a48.58,48.58,0,0,0,5-.47q.17-2.09.17-5,0-1.72-.1-3.46t-.21-2.79q-.11-1.06-.3-2.52l-5.71-.71v-.22H39.41v.22L35,68.1a36.24,36.24,0,0,0-.51,5.38q-.16,3.78-.16,7.34V88A52,52,0,0,0,35,97.76l4.44.75v.22H23.73v-.22l5.6-.75a58.49,58.49,0,0,0,.71-8q0-1.12,0-2.73t-.17-3.35H9.53q-.09,1.62-.09,5.07,0,2,.14,4.78a27.16,27.16,0,0,0,.48,4.28l5.65.75v.22H0v-.22l4.35-.75q.15-.86.32-3.09t.28-5q.11-2.79.11-4.69V77q0-.34-.06-2.27t-.23-3.84Q4.61,69,4.44,68.1L0,67.39Z"/></g><g id="Palm"><path class="cls-2" d="M70.34,32.29h0c-1.7,2.86-2.36,4.7-5,5.46a5.15,5.15,0,0,1,2.27,0,5.86,5.86,0,0,0-2.95,1,3.94,3.94,0,0,1,2.58-.43,7.14,7.14,0,0,0-3.12,1,8.79,8.79,0,0,1,3.1-.55A8.17,8.17,0,0,0,63.93,40,7.37,7.37,0,0,1,67,39.17a9.76,9.76,0,0,0-3.57,1.52,8.24,8.24,0,0,1,3.48-1.08,8.8,8.8,0,0,0-3.73,1.73,6.47,6.47,0,0,1,3.71-1.18,8.56,8.56,0,0,0-4.54,2.31,6.94,6.94,0,0,1,4.4-1.54A6.51,6.51,0,0,0,63,42.79a5.44,5.44,0,0,1,3.86-1.12,5.2,5.2,0,0,0-3.39,1.57,3.12,3.12,0,0,1,2.66-.71,3.72,3.72,0,0,0-2.51,1.32A5.07,5.07,0,0,1,66,43.05a3.21,3.21,0,0,0-2.1,1.56,2.85,2.85,0,0,1,2-.65,4.24,4.24,0,0,0-2.11,1.43,2.36,2.36,0,0,1,1.7-.54,6.39,6.39,0,0,0-2,1.64,3.48,3.48,0,0,1,2.17-1,5.44,5.44,0,0,0-2.06,1.67,3.56,3.56,0,0,1,1.75-.93,7.28,7.28,0,0,0-2.18,1.82,6,6,0,0,1,2.23-1.29,6.82,6.82,0,0,0-2.23,2.26,4.2,4.2,0,0,1,2.3-1.73A6.8,6.8,0,0,0,63.89,49a3.83,3.83,0,0,1,1.5-1,6.08,6.08,0,0,0-1.82,2,3.85,3.85,0,0,1,1.75-1.06,6.35,6.35,0,0,0-2.07,2.25,5.69,5.69,0,0,1,2-1.48,4.58,4.58,0,0,0-1.38,1.42,2.73,2.73,0,0,1,1.31-.76,7.33,7.33,0,0,0-1.8,1.52A5.75,5.75,0,0,1,65.08,51a4.51,4.51,0,0,0-1.6,1.4,4.6,4.6,0,0,1,1.56-1,3.77,3.77,0,0,0-1.64,1.66A3.1,3.1,0,0,1,65,51.94a6,6,0,0,0-1.77,1.76A4,4,0,0,1,65,52.47a3.33,3.33,0,0,0-1.33,1.29A2.38,2.38,0,0,1,64.95,53a3.93,3.93,0,0,0-1.58,1.72,3.5,3.5,0,0,1,1.56-1.16,3.68,3.68,0,0,0-1.23,1.39,2.25,2.25,0,0,1,1.22-.83,3.29,3.29,0,0,0-1,1.34,2.05,2.05,0,0,1,1-.78A3.57,3.57,0,0,0,63.87,56a1.85,1.85,0,0,1,1.07-.85,5.35,5.35,0,0,0-1.22,1.6A3.42,3.42,0,0,1,65,55.6a5.7,5.7,0,0,0-1.34,2.34A4.19,4.19,0,0,1,65,56.14a6.7,6.7,0,0,0-1.36,3.29A5.73,5.73,0,0,1,65,56.65a16.92,16.92,0,0,0-1.24,3.72,10.55,10.55,0,0,1,1.29-3.08,19.67,19.67,0,0,0-1.31,4.45,14.34,14.34,0,0,1,1.42-3.43A13,13,0,0,0,64,62.9a8.87,8.87,0,0,1,1.32-3.47,13.17,13.17,0,0,0-1,5.46,7.1,7.1,0,0,1,1.21-4.29,26.73,26.73,0,0,0-1,5.95,23.13,23.13,0,0,1,.86-4.5,30.52,30.52,0,0,0-.25,5c.14-2.17.18-3.35.91-4.11,0,0,1.14,1.22.77,5.23a11.17,11.17,0,0,0-.43-5.81A17.56,17.56,0,0,1,68,67a12.66,12.66,0,0,0-1.6-5.65A8.16,8.16,0,0,1,68,64.55a8.13,8.13,0,0,0-2-4,8.24,8.24,0,0,1,2.14,3,9.32,9.32,0,0,0-2.06-3.83,10,10,0,0,1,2.2,2.54A8.57,8.57,0,0,0,65.91,59,10.41,10.41,0,0,1,69,62.32a15,15,0,0,0-3.14-4.2,14.84,14.84,0,0,1,3.69,3.55A23.64,23.64,0,0,0,66,57.44a10.46,10.46,0,0,1,3.27,3.25,19.39,19.39,0,0,0-3.47-4.5,15,15,0,0,1,3.46,3.38,10.92,10.92,0,0,0-3.43-4.05c1.55.52,2.76,2.33,3.61,3.34a10.77,10.77,0,0,0-3.6-4.24,18.54,18.54,0,0,1,5.29,2.46c-.29-.62-4.4-2.94-5.27-3.22A11.48,11.48,0,0,1,71,56.15,16.36,16.36,0,0,0,65.89,53a15.18,15.18,0,0,1,4.5,1.84,25.36,25.36,0,0,0-4.47-2.61,23.9,23.9,0,0,1,5.33,2.29A25.74,25.74,0,0,0,66,51.68a19.84,19.84,0,0,1,4.82,2A17.37,17.37,0,0,0,66,51.28a20.32,20.32,0,0,1,5.89,2A22.73,22.73,0,0,0,66,50.75,13,13,0,0,1,71,52.39a15.47,15.47,0,0,0-4.72-2.17,20,20,0,0,1,4.56,1.28,28.81,28.81,0,0,0-4.72-1.85,21.47,21.47,0,0,1,5.54,1.5,16.2,16.2,0,0,0-5-1.92,13.31,13.31,0,0,1,4.62,1.19,13.25,13.25,0,0,0-4.8-1.69c1.5-.16,4.26.78,5.66,1.37a20.81,20.81,0,0,0-5.78-2,13,13,0,0,1,5.08,1.19,12.73,12.73,0,0,0-4.52-1.75,13.85,13.85,0,0,1,4.42,1A13.34,13.34,0,0,0,66.59,47,18.9,18.9,0,0,1,72,48a19.85,19.85,0,0,0-5.28-1.58,14.63,14.63,0,0,1,4.24.79,15.4,15.4,0,0,0-4.36-1.59,20.82,20.82,0,0,1,6.9,1.48A24.75,24.75,0,0,0,66.9,45a10.23,10.23,0,0,1,5.27,1,13.46,13.46,0,0,0-5.27-2A21.79,21.79,0,0,1,73,45.48a14.78,14.78,0,0,0-5.85-2.07c1.83-.26,4.94.88,6.5,1.57a22.16,22.16,0,0,0-6.45-2.18,17.47,17.47,0,0,1,5.48,1.27,16.67,16.67,0,0,0-5.13-2,22.18,22.18,0,0,1,5.85,1.33,32.62,32.62,0,0,0-5.72-2.21,21,21,0,0,1,4.94,1.45,18,18,0,0,0-4.63-1.9,13.79,13.79,0,0,1,4.33,1.15,10.31,10.31,0,0,0-4.2-1.64,8.72,8.72,0,0,1,4.4,1,14.41,14.41,0,0,0-4.4-1.48,12,12,0,0,1,3.85.78,18.36,18.36,0,0,0-3.77-1.14,16.61,16.61,0,0,1,4.74.91A9.37,9.37,0,0,0,68.77,39a4.15,4.15,0,0,1,3,.49,3.6,3.6,0,0,0-2.55-1c.58-.65,1.74-.06,2.49.37-1.69-1.92-.37-3.59-1.34-6.55Z"/><path class="cls-2" d="M70.34,32.29C60.46,36.69,51.79,39,47.45,49.15a15.33,15.33,0,0,0-1.29,6.09A15.48,15.48,0,0,1,48,49.18c-.39,1.54-1.2,2.85-1.22,5.86a19.31,19.31,0,0,1,1.92-6.63,15.32,15.32,0,0,0-1,5.44,34.71,34.71,0,0,1,1.4-6.49,20,20,0,0,0-.44,6.55,24.54,24.54,0,0,1,1.11-7,18.87,18.87,0,0,0-.16,7,26.08,26.08,0,0,1,.66-7.81,16.63,16.63,0,0,0,.18,6.72,22.1,22.1,0,0,1,.47-6.95,23.69,23.69,0,0,0,.44,6.94,41,41,0,0,1,.11-7.71A78.74,78.74,0,0,0,51.92,53a37.55,37.55,0,0,1,.25-7.77,28.16,28.16,0,0,0,.91,6.5,27.3,27.3,0,0,1-.3-7,23.62,23.62,0,0,0,1,6.43,30.8,30.8,0,0,1-.33-7.13,34.1,34.1,0,0,0,.87,7.16,28.08,28.08,0,0,1,0-8.12,26.65,26.65,0,0,0,.68,7.29,25.17,25.17,0,0,1,0-7.51,18,18,0,0,0,.73,5.81,12.72,12.72,0,0,1-.18-6,15.25,15.25,0,0,0,.85,6.83,14,14,0,0,1-.34-6.93,17.55,17.55,0,0,0,.78,5.75,14.76,14.76,0,0,1-.31-5.32,17.72,17.72,0,0,0,1.15,6.37c-.67-2.54-1.06-4.85-.47-6.33a13.27,13.27,0,0,0,.67,4.6,11.56,11.56,0,0,1-.13-5.31c-.06,1.54-.18,3.1.72,4.47a3.87,3.87,0,0,1-.14-3.56A12.69,12.69,0,0,0,59,47.64a11.23,11.23,0,0,1-.32-5.05,9.66,9.66,0,0,0,.66,4A6.65,6.65,0,0,1,59.21,43,12.26,12.26,0,0,0,60,47.43a13.57,13.57,0,0,1-.43-4.72,6.92,6.92,0,0,0,.7,3.26,7.68,7.68,0,0,1-.13-3.83,7.15,7.15,0,0,0,.62,3.19,8.67,8.67,0,0,1-.28-3.51,7,7,0,0,0,1.06,4,7.1,7.1,0,0,1-.45-3.72A3.27,3.27,0,0,0,61.64,44a8.93,8.93,0,0,1,0-3.35A15.76,15.76,0,0,0,63,47.08a13,13,0,0,1-.54-5.26,5.77,5.77,0,0,0,.69,2.79,14.43,14.43,0,0,1-.43-4.79A13.24,13.24,0,0,0,64,45.19a12.63,12.63,0,0,1-.62-4.6,14.62,14.62,0,0,0,1.32,5,16,16,0,0,1-.78-6.49,12.57,12.57,0,0,0,1,4.62,15,15,0,0,1-.32-5.05,15.07,15.07,0,0,0,1.15,5.5A14.56,14.56,0,0,1,65.15,39a7.93,7.93,0,0,0,.72,3.73,10.81,10.81,0,0,1-.38-4.18,7.12,7.12,0,0,0,.79,3.27A7.36,7.36,0,0,1,66,38.34a4.45,4.45,0,0,0,.89,3.21c-.8-1.36-.58-2.92-.5-4.46a6.08,6.08,0,0,0,.75,3.27,6,6,0,0,1-.24-3.5,10,10,0,0,0,.9,4.55,10.34,10.34,0,0,1-.56-4.86,4.18,4.18,0,0,0,.64,2.79,5.37,5.37,0,0,1-.23-2.9,4,4,0,0,0,.67,2.39C67.39,34.84,69.66,34.47,70.34,32.29Z"/><path class="cls-2" d="M70.34,32.29c6.88,7.24,13.26,12.35,14.43,22.09a13.51,13.51,0,0,1-.35,5.34,14.43,14.43,0,0,0-.08-5.52A15.8,15.8,0,0,1,84,59.34a17.72,17.72,0,0,0,0-6A13.34,13.34,0,0,1,83.51,58a30.69,30.69,0,0,0,.35-5.7,16.39,16.39,0,0,1-1.12,5.38,21,21,0,0,0,.71-6A15.08,15.08,0,0,1,82,57.36a21.52,21.52,0,0,0,1.24-6.47,12.94,12.94,0,0,1-1.66,5.29,18.08,18.08,0,0,0,1.19-5.71,18.07,18.07,0,0,1-1.92,5.36,32.55,32.55,0,0,0,1.65-6.18,60.14,60.14,0,0,1-2.16,6.15,30.1,30.1,0,0,0,1.55-6.28,20.69,20.69,0,0,1-2.19,4.83,21.08,21.08,0,0,0,1.81-5.46,17.28,17.28,0,0,1-2.22,4.76,23.7,23.7,0,0,0,1.87-5.55,25.28,25.28,0,0,1-2.31,5.38A22.12,22.12,0,0,0,80.72,47a20,20,0,0,1-2.19,5.54,19.79,19.79,0,0,0,1.73-6,13.36,13.36,0,0,1-1.89,4.35,10,10,0,0,0,1.49-4.7,11.29,11.29,0,0,1-2.22,5.12A10.79,10.79,0,0,0,79.47,46a12.9,12.9,0,0,1-1.92,4.28A11.3,11.3,0,0,0,79,46.14a12.79,12.79,0,0,1-2.35,4.64c1.11-1.77,1.94-3.46,1.8-4.87a9.74,9.74,0,0,1-1.57,3.41,9,9,0,0,0,1.3-4.18c-.3,1.25-.55,2.54-1.58,3.29a3,3,0,0,0,.92-2.78,9.14,9.14,0,0,1-1.63,3.15,8.62,8.62,0,0,0,1.4-3.9,7,7,0,0,1-1.43,2.93A5.17,5.17,0,0,0,76.79,45a8.84,8.84,0,0,1-1.66,3.26,10.22,10.22,0,0,0,1.41-3.6A4.92,4.92,0,0,1,75.25,47a6,6,0,0,0,1-3A5.14,5.14,0,0,1,75,46.3a6.57,6.57,0,0,0,1-2.69,4.92,4.92,0,0,1-1.75,2.8,5.27,5.27,0,0,0,1.2-2.79,2.27,2.27,0,0,1-.83,1.27,7,7,0,0,0,.77-2.66,11.23,11.23,0,0,1-2.55,4.62,9.74,9.74,0,0,0,1.62-4,4.07,4.07,0,0,1-1.18,2,10.87,10.87,0,0,0,1.42-3.65A9.35,9.35,0,0,1,72.51,45,9.3,9.3,0,0,0,74,41.56a10.21,10.21,0,0,1-2.19,3.52,11.89,11.89,0,0,0,2.08-4.87,8.93,8.93,0,0,1-1.83,3.31,11.48,11.48,0,0,0,1.4-3.9,10.74,10.74,0,0,1-2.16,3.95,10.94,10.94,0,0,0,1.62-4,5.69,5.69,0,0,1-1.42,2.7,8.14,8.14,0,0,0,1.24-3.19,5,5,0,0,1-1.37,2.3,5.57,5.57,0,0,0,1-2.63A3.12,3.12,0,0,1,71,41c.94-.78,1.12-2.11,1.4-3.36a4.31,4.31,0,0,1-1.33,2.32,4.54,4.54,0,0,0,1-2.7,7.14,7.14,0,0,1-1.74,3.28,7.7,7.7,0,0,0,1.54-3.66,3,3,0,0,1-1.14,2,4.07,4.07,0,0,0,.84-2.22,2.77,2.77,0,0,1-1.07,1.65C72.11,35.44,70.38,34.28,70.34,32.29Z"/><path class="cls-2" d="M70.34,32.29C62.89,38.48,57.87,44.66,55.39,57a18,18,0,0,1-1.67,5.8,13.44,13.44,0,0,0,2-5.57,25.33,25.33,0,0,1-.83,5.26,17.8,17.8,0,0,0,1.17-6.18,12.56,12.56,0,0,1-.18,3.9,12.42,12.42,0,0,0,.25-4.88,13.08,13.08,0,0,1,.25,4.1,14.42,14.42,0,0,0,.13-4.81A16,16,0,0,1,57,58.36a13.6,13.6,0,0,0-.28-4.55,16.54,16.54,0,0,1,.74,5,16,16,0,0,0-.53-6.08,22.85,22.85,0,0,1,1.16,5.83,37.84,37.84,0,0,0-.7-6.12,16.52,16.52,0,0,1,.91,5.05,18,18,0,0,0-.33-5.3,13.13,13.13,0,0,1,.77,4.27,20.64,20.64,0,0,0-.42-5A23.38,23.38,0,0,1,59.16,56a21.78,21.78,0,0,0-.52-5.24A12.89,12.89,0,0,1,61,55.42a28.27,28.27,0,0,0-2.31-6.34,15.39,15.39,0,0,1,2.59,5.41A33.35,33.35,0,0,0,59,48.21a19.61,19.61,0,0,1,2.4,4.68,23.72,23.72,0,0,0-2.25-5.65,30.7,30.7,0,0,1,3,5.91,36.63,36.63,0,0,0-2.42-5.95,26.27,26.27,0,0,1,2.47,4.87,19.73,19.73,0,0,0-2.09-4.73,21.35,21.35,0,0,1,3,5,23.24,23.24,0,0,0-2.49-5.27A11.56,11.56,0,0,1,62.78,51,16.25,16.25,0,0,0,61,46.59,17.52,17.52,0,0,1,63,50.14a13.33,13.33,0,0,0-1.63-3.3,13,13,0,0,1,2.32,3.51,21.08,21.08,0,0,0-2.64-5,15.78,15.78,0,0,1,2.64,4A9.05,9.05,0,0,0,61.91,46a10.08,10.08,0,0,1,2.52,3.65,19.69,19.69,0,0,0-2.57-4.81,10.48,10.48,0,0,1,2.43,3.61,8.94,8.94,0,0,0-1.54-3.35,7.86,7.86,0,0,1,1.76,2.63,11.3,11.3,0,0,0-2.12-3.66,14.34,14.34,0,0,1,2.83,3.62,13.49,13.49,0,0,0-2.14-3.59,6.81,6.81,0,0,1,1.75,2.2A16.12,16.12,0,0,0,63,42.72a18.61,18.61,0,0,1,3.56,5.15,18.45,18.45,0,0,0-2.66-4.81,5.51,5.51,0,0,1,2.18,3,9.8,9.8,0,0,0-2.2-4.22,15.78,15.78,0,0,1,3,4.21,10.35,10.35,0,0,0-2.31-4.16A10,10,0,0,1,67.49,46a18.64,18.64,0,0,0-2.62-5.07,11.89,11.89,0,0,1,2.33,3.62,13.06,13.06,0,0,0-1.77-4,15.53,15.53,0,0,1,2.51,3.92,27.89,27.89,0,0,0-2.31-4.62,15,15,0,0,1,2.08,3.42A13.81,13.81,0,0,0,66,39.61a8.55,8.55,0,0,1,1.82,2.71,9.21,9.21,0,0,0-1.71-3.48,6.65,6.65,0,0,1,2.11,3,13.55,13.55,0,0,0-1.84-3.66,9.2,9.2,0,0,1,1.75,2.67A14.31,14.31,0,0,0,66.7,38a12.66,12.66,0,0,1,2.16,3.28,11.77,11.77,0,0,0-2.24-3.88,4.52,4.52,0,0,1,1.8,2.34A4.66,4.66,0,0,0,67.1,37.2c.65-.22,1.2,1.06,1.54,1.93C68.26,36.3,69.82,35.62,70.34,32.29Z"/><path class="cls-2" d="M70.34,32.29c-7.55-2.87-13.75-6.45-19.3-2.09a7.91,7.91,0,0,0-2.48,3.4,7.19,7.19,0,0,1,2.81-3.06A9.14,9.14,0,0,0,49,33.82a9.21,9.21,0,0,1,3-3.39,8.08,8.08,0,0,0-2.1,3.14A17.7,17.7,0,0,1,52.58,30a12.17,12.17,0,0,0-2.06,4.21A13.37,13.37,0,0,1,53.14,30a12.07,12.07,0,0,0-2,4.71,15.48,15.48,0,0,1,2.54-4.95A11.37,11.37,0,0,0,52,34.49,13.41,13.41,0,0,1,54.15,30a17,17,0,0,0-1.59,5,26.6,26.6,0,0,1,2.16-5.2,56,56,0,0,0-1.85,5.7,23.81,23.81,0,0,1,2.26-5.16,22.23,22.23,0,0,0-1.17,5,19,19,0,0,1,1.7-5,18.84,18.84,0,0,0-1.12,5,21.62,21.62,0,0,1,1.72-5.07,26.32,26.32,0,0,0-1.38,5.41A18.59,18.59,0,0,1,57,30.13a19.85,19.85,0,0,0-1.53,5.38,16.75,16.75,0,0,1,2-5.16,14,14,0,0,0-1.11,4.4,8.55,8.55,0,0,1,1.51-4.19,11.8,11.8,0,0,0-1.3,5.17,9.77,9.77,0,0,1,1.66-4.94,13.83,13.83,0,0,0-1.06,4.39,10.48,10.48,0,0,1,1.24-3.82,14.68,14.68,0,0,0-1,5c.26-2.13.63-3.95,1.41-4.61a10.52,10.52,0,0,0-.82,3.54,7.85,7.85,0,0,1,1.36-3.7,5.79,5.79,0,0,0-.75,3.48c0-1.55.36-2.14.87-2.52a10.6,10.6,0,0,0-.65,3.45,7.94,7.94,0,0,1,1.16-3.64,7.85,7.85,0,0,0-.66,3.12A4.55,4.55,0,0,1,60.29,33a10.18,10.18,0,0,0-.69,3.54,10.08,10.08,0,0,1,1-3.48,6,6,0,0,0-.43,2.65,5.26,5.26,0,0,1,1-2.69,6,6,0,0,0-.47,2.55A6.33,6.33,0,0,1,61.42,33,6.38,6.38,0,0,0,61,36.34a5.45,5.45,0,0,1,.72-2.81,3,3,0,0,0-.17,1.57,6,6,0,0,1,.9-2.3A13.54,13.54,0,0,0,61.6,38a9.84,9.84,0,0,1,1.08-3.92,5.14,5.14,0,0,0-.31,2.32,10.69,10.69,0,0,1,1-3.53,11.66,11.66,0,0,0-.65,4.42,9.91,9.91,0,0,1,.85-3.51A13.27,13.27,0,0,0,63.06,38a12.32,12.32,0,0,1,1.26-4.89,10.87,10.87,0,0,0-.62,3.74,10.79,10.79,0,0,1,1.16-3.64,13,13,0,0,0-.75,4.45,10.86,10.86,0,0,1,1.08-3.92,6.7,6.7,0,0,0-.55,3,8,8,0,0,1,.89-3.08,6.32,6.32,0,0,0-.37,2.7,5.4,5.4,0,0,1,.75-2.52,4.06,4.06,0,0,0-.3,2.72,5.8,5.8,0,0,1,.89-3.34,5.33,5.33,0,0,0-.4,2.68,4.29,4.29,0,0,1,.8-2.53A8.41,8.41,0,0,0,66.23,37a7.9,7.9,0,0,1,1-3.66,3.64,3.64,0,0,0-.34,2.29,3.93,3.93,0,0,1,.64-2.12,3.67,3.67,0,0,0-.22,2C67.75,32.28,69.31,33.38,70.34,32.29Z"/><path class="cls-2" d="M70.34,32.29c6.68-5.15,12.15-7.61,19.24-4.14.94.46,1.93,1.28,3.59,1.07a4.35,4.35,0,0,1-3.66-.56,8.4,8.4,0,0,0,2.91,1.74,5.81,5.81,0,0,1-3.51-1.82,4.94,4.94,0,0,0,1.94,1.77,4.85,4.85,0,0,1-2.43-2.18,6.34,6.34,0,0,0,1.82,2.35,5.82,5.82,0,0,1-2.34-2.28,9,9,0,0,0,1.53,2.41,6.6,6.6,0,0,1-2-2.61,9.72,9.72,0,0,0,2,3.36,8.22,8.22,0,0,1-2.61-3.66A15,15,0,0,0,89,32a20.61,20.61,0,0,1-2.54-3.87,10.45,10.45,0,0,0,1.93,3.57,8.73,8.73,0,0,1-2.34-3,8.4,8.4,0,0,0,1.63,3,10.35,10.35,0,0,1-2.13-3,15.06,15.06,0,0,0,1.67,3.15A11.41,11.41,0,0,1,85,28.59a15.05,15.05,0,0,0,1,5,26.09,26.09,0,0,1-1.84-5.76,17.25,17.25,0,0,0,1.25,5.61,30.8,30.8,0,0,1-1.81-5.7,23.28,23.28,0,0,0,1,5,23.26,23.26,0,0,1-1.54-5.35,35.74,35.74,0,0,0,1.3,6.27A36.6,36.6,0,0,1,82.77,28a30.91,30.91,0,0,0,1.06,5.2,20.92,20.92,0,0,1-1.18-4.71,28.2,28.2,0,0,0,.89,5.86,25.94,25.94,0,0,1-1.23-5.43A14.8,14.8,0,0,0,83,33.36a16.25,16.25,0,0,1-1.19-4.28,23,23,0,0,0,.63,4.09,15.32,15.32,0,0,1-.74-3.47,18.71,18.71,0,0,0,.49,4.35,25.66,25.66,0,0,1-1-5.44,22.57,22.57,0,0,0,.58,5,11.06,11.06,0,0,1-.69-3.72,15,15,0,0,0,.45,4.64,24.11,24.11,0,0,1-1-5.29,15.26,15.26,0,0,0,.48,4.52,9.72,9.72,0,0,1-.81-3.4,11.42,11.42,0,0,0,.36,3.28,14.77,14.77,0,0,1-.66-4.2,23.43,23.43,0,0,0,.28,5,18,18,0,0,1-.62-4.19,11.25,11.25,0,0,0,.16,3.05,18.75,18.75,0,0,1-.8-3.84A27.72,27.72,0,0,0,79.61,36a23.13,23.13,0,0,1-.94-5.38,8.47,8.47,0,0,0,.3,3.91,11.74,11.74,0,0,1-.88-4.58,23.77,23.77,0,0,0,.5,5.42,13,13,0,0,1-.8-4.66A15.18,15.18,0,0,0,78.24,36a22.23,22.23,0,0,1-1.08-5.47A16.76,16.76,0,0,0,77.7,35a13.79,13.79,0,0,1-1-4,21.82,21.82,0,0,0,.59,4.76,32.4,32.4,0,0,1-1-4.9,20.3,20.3,0,0,0,.57,4A15.57,15.57,0,0,1,76,31.16a12.39,12.39,0,0,0,.37,3.39,10.56,10.56,0,0,1-.78-3.66,10,10,0,0,0,.35,3.86,15.82,15.82,0,0,1-.8-3.89,13.13,13.13,0,0,0,.38,3.29,16.45,16.45,0,0,1-.64-3,18.17,18.17,0,0,0,.46,4.06,15.2,15.2,0,0,1-.71-4.44,7.15,7.15,0,0,0,.2,3.19,5.56,5.56,0,0,1-.52-2.75c-.43.61-.11,1.87.14,2.68C73.28,32,72.18,33.39,70.34,32.29Z"/><path class="cls-2" d="M70.34,32.29c7,.86,13,.55,16.49,6.54A8.91,8.91,0,0,1,88,42.7,8.42,8.42,0,0,0,86.47,39a10.35,10.35,0,0,1,1.14,3.73A10.69,10.69,0,0,0,86,38.59a9,9,0,0,1,1,3.5A20.09,20.09,0,0,0,85.61,38a12.83,12.83,0,0,1,.65,4.36,14.75,14.75,0,0,0-1.13-4.56,12.42,12.42,0,0,1,.48,4.76,16.47,16.47,0,0,0-.86-5.18A11.36,11.36,0,0,1,85,42a14.12,14.12,0,0,0-.69-4.63,16.62,16.62,0,0,1,.07,4.82,27.21,27.21,0,0,0-.48-5.23A55.07,55.07,0,0,1,84,42.45a24.61,24.61,0,0,0-.58-5.24,20.82,20.82,0,0,1-.28,4.62A18.82,18.82,0,0,0,83,37a17.56,17.56,0,0,1-.31,4.59,21.36,21.36,0,0,0-.15-4.93,24.92,24.92,0,0,1-.21,5.07,18.86,18.86,0,0,0-.4-5.54,19.09,19.09,0,0,1-.08,5.11,17,17,0,0,0-.37-5.13,13.21,13.21,0,0,1-.19,4.12,8.61,8.61,0,0,0-.2-4.11A11.15,11.15,0,0,1,80.83,41a9.67,9.67,0,0,0-.13-4.8,13,13,0,0,1-.22,4.08,10.29,10.29,0,0,0-.07-3.69A13.44,13.44,0,0,1,80,41.21c.32-1.88.47-3.54,0-4.42a9.83,9.83,0,0,1-.21,3.28,7.87,7.87,0,0,0-.19-3.64,5.37,5.37,0,0,1-.25,3.2,2.62,2.62,0,0,0-.09-2.46,9.67,9.67,0,0,1-.33,3.14,7.81,7.81,0,0,0,0-3.51,7.25,7.25,0,0,1-.24,2.87,4.54,4.54,0,0,0-.1-2.5,9.31,9.31,0,0,1-.31,3.22,9.71,9.71,0,0,0,0-3.31,5.37,5.37,0,0,1-.31,2.37,5.25,5.25,0,0,0-.12-2.64,5.47,5.47,0,0,1-.25,2.31,6.14,6.14,0,0,0,0-2.45,5.59,5.59,0,0,1-.51,3A5.17,5.17,0,0,0,77.14,37a2.64,2.64,0,0,1-.26,1.37,6,6,0,0,0-.16-2.29,12.2,12.2,0,0,1-.59,4.69,9.4,9.4,0,0,0,.09-3.7,4.55,4.55,0,0,1-.32,2.05,10.3,10.3,0,0,0,0-3.35,10.38,10.38,0,0,1-.57,3.93,9.3,9.3,0,0,0,.18-3.27,11.65,11.65,0,0,1-.63,3.72,11.68,11.68,0,0,0,.19-4.59,9.76,9.76,0,0,1-.42,3.36,10.55,10.55,0,0,0,0-3.51,11.66,11.66,0,0,1-.49,4,10.44,10.44,0,0,0,.09-3.7,6.08,6.08,0,0,1-.29,2.7,7.72,7.72,0,0,0,0-2.93,5.6,5.6,0,0,1-.37,2.4,5.23,5.23,0,0,0,0-2.4,3.55,3.55,0,0,1-.43,2.38,5.52,5.52,0,0,0,.1-3.14,4.75,4.75,0,0,1-.34,2.39,4.18,4.18,0,0,0,0-2.44,7.63,7.63,0,0,1-.37,3.29,7.5,7.5,0,0,0,.12-3.43,3.26,3.26,0,0,1-.29,2,3.81,3.81,0,0,0,0-2,3.19,3.19,0,0,1-.33,1.77C72.48,33.39,70.91,33.63,70.34,32.29Z"/><path class="cls-2" d="M112.7,9.9h0c1.77,3.93,2.29,6.36,5.85,7.9a8.2,8.2,0,0,0-3.16-.56,8.9,8.9,0,0,1,3.91,1.94,6.17,6.17,0,0,0-3.52-1.1A10.91,10.91,0,0,1,119.91,20a13.79,13.79,0,0,0-4.22-1.38A12.36,12.36,0,0,1,120,20.86a11.4,11.4,0,0,0-4.18-1.68c1.46.62,3.73,1.6,4.67,2.69a12.62,12.62,0,0,0-4.63-2.12,13,13,0,0,1,4.84,3,9.88,9.88,0,0,0-4.94-2.29c2.51.93,4.89,2.39,5.85,3.88a10.51,10.51,0,0,0-5.82-2.9,9.58,9.58,0,0,1,5,3.15,8.35,8.35,0,0,0-5.17-2.25c1.8.54,3.73,1.45,4.41,2.71a4.78,4.78,0,0,0-3.57-1.48,5.41,5.41,0,0,1,3.23,2.19,7.73,7.73,0,0,0-3.18-1.51,4.44,4.44,0,0,1,2.6,2.4,4.32,4.32,0,0,0-2.61-1.25,6,6,0,0,1,2.65,2.25,3.59,3.59,0,0,0-2.26-1,8.74,8.74,0,0,1,2.43,2.48,5.18,5.18,0,0,0-2.84-1.67A7.45,7.45,0,0,1,119,29.95a5.2,5.2,0,0,0-2.24-1.54,9.93,9.93,0,0,1,2.66,2.75,8.62,8.62,0,0,0-2.85-2.1,9,9,0,0,1,2.63,3.31,5.82,5.82,0,0,0-2.84-2.65A8.88,8.88,0,0,1,118.12,32a5.41,5.41,0,0,0-1.89-1.54,7.89,7.89,0,0,1,2.11,2.91,5.52,5.52,0,0,0-2.22-1.71A8.27,8.27,0,0,1,118.54,35a7.9,7.9,0,0,0-2.44-2.28,6,6,0,0,1,1.63,2.07,3.94,3.94,0,0,0-1.66-1.24,10,10,0,0,1,2.19,2.29A8.41,8.41,0,0,0,116,34.26,6.09,6.09,0,0,1,118,36.35a6.58,6.58,0,0,0-2-1.55,5,5,0,0,1,1.93,2.43,4.35,4.35,0,0,0-2-1.75,7.93,7.93,0,0,1,2.1,2.58,5.54,5.54,0,0,0-2.18-1.91,4.42,4.42,0,0,1,1.59,1.9,3.42,3.42,0,0,0-1.67-1.28,5.11,5.11,0,0,1,1.84,2.49,4.88,4.88,0,0,0-1.94-1.79,4.76,4.76,0,0,1,1.42,2,3.17,3.17,0,0,0-1.53-1.31A4.16,4.16,0,0,1,116.71,40a2.85,2.85,0,0,0-1.29-1.2,4.52,4.52,0,0,1,1.19,1.92,2.55,2.55,0,0,0-1.31-1.29,6.74,6.74,0,0,1,1.36,2.26A4.58,4.58,0,0,0,115.18,40a6.9,6.9,0,0,1,1.37,3.2A5.3,5.3,0,0,0,115,40.7a7.85,7.85,0,0,1,1.19,4.39,6.84,6.84,0,0,0-1.35-3.76,19.42,19.42,0,0,1,.93,4.9,12.34,12.34,0,0,0-1.14-4.11,22.47,22.47,0,0,1,.87,5.82,16.74,16.74,0,0,0-1.25-4.58,14.77,14.77,0,0,1,.64,5.95,10.29,10.29,0,0,0-1.1-4.61,14.86,14.86,0,0,1,.22,7c.21-1.93.34-4-.76-5.6a30,30,0,0,1,.08,7.6,26.1,26.1,0,0,0-.23-5.78,34.2,34.2,0,0,1-.73,6.27c.27-2.73.48-4.2-.38-5.31,0,0-1.86,1.26-2.21,6.32a12.63,12.63,0,0,1,1.85-7.12,20.75,20.75,0,0,0-3.18,5.48,14.84,14.84,0,0,1,3.47-6.65A10.1,10.1,0,0,0,109,50.47,10,10,0,0,1,112.63,46,10.73,10.73,0,0,0,109,49.23a11.61,11.61,0,0,1,3.71-4.29,13.51,13.51,0,0,0-3.63,2.67,11.16,11.16,0,0,1,4-3.59,14.16,14.16,0,0,0-5,3.47,19.66,19.66,0,0,1,5.3-4.51,20.59,20.59,0,0,0-5.93,3.58,31.62,31.62,0,0,1,5.87-4.46A14.46,14.46,0,0,0,108,45.4a25.55,25.55,0,0,1,5.83-4.82A20.81,20.81,0,0,0,108.3,44c.58-1.12,3.94-3.73,5.68-4.26-2.28.3-4.37,2.27-5.77,3.34a14.41,14.41,0,0,1,6-4.45,28.33,28.33,0,0,0-7.94,1.87c.54-.71,6.8-2.66,8.07-2.82a17.57,17.57,0,0,0-7.69,1.69,24.12,24.12,0,0,1,7.83-2.77,23.43,23.43,0,0,0-6.7,1.27,37.8,37.8,0,0,1,6.82-2.24,36.77,36.77,0,0,0-8,1.65,38.84,38.84,0,0,1,8-2.34,30.62,30.62,0,0,0-7.18,1.36,26.4,26.4,0,0,1,7.25-1.87A31.72,31.72,0,0,0,106,35.57a35,35,0,0,1,8.71-1.8,20.3,20.3,0,0,0-7.27.94,23.67,23.67,0,0,1,7.08-1.64,31.44,31.44,0,0,0-6.67.57,44.56,44.56,0,0,1,7-1.24c-2-.33-6.16.31-8.09.62a25.11,25.11,0,0,1,7.47-1.26,21,21,0,0,0-6.72.45,20.61,20.61,0,0,1,7.08-1c-2.07-.54-6.13,0-8.22.44a32.43,32.43,0,0,1,8.53-1.2,20.59,20.59,0,0,0-7.38.34,19.7,19.7,0,0,1,6.7-1.16,21.91,21.91,0,0,0-6.4.29,20.81,20.81,0,0,1,6.94-1,30,30,0,0,0-7.85.11,31.17,31.17,0,0,1,7.74-.78,23.23,23.23,0,0,0-6.1,0,23.87,23.87,0,0,1,6.45-1,33,33,0,0,0-10,.3,38.75,38.75,0,0,1,9.73-1.15,16.18,16.18,0,0,0-7.6.1A20.82,20.82,0,0,1,115,25.28a34.45,34.45,0,0,0-8.8.4,23,23,0,0,1,8.64-1.26c-2.5-.73-7.11,0-9.44.5a34.58,34.58,0,0,1,9.5-1.27,27.62,27.62,0,0,0-7.94.35,25.83,25.83,0,0,1,7.6-1.28,35.09,35.09,0,0,0-8.48.35,50.58,50.58,0,0,1,8.49-1.47,33.06,33.06,0,0,0-7.22.7A27.73,27.73,0,0,1,114.2,21a21.72,21.72,0,0,0-6.31.46,16,16,0,0,1,6.24-1.09,13.77,13.77,0,0,0-6.37.22,22.5,22.5,0,0,1,6.48-.85,19,19,0,0,0-5.55.11c1.29-.47,4-.45,5.52-.58a26.35,26.35,0,0,0-6.83.07,14.61,14.61,0,0,1,6.07-.78,6.55,6.55,0,0,0-4.26-.05,5.54,5.54,0,0,1,3.78-.65c-.67-.94-2.42-.47-3.57-.1,2.78-2,1.29-4.37,3.3-7.83Z"/><path class="cls-2" d="M113.32,10.45c13.15,7.9,25,12.62,29.32,27.68a21.74,21.74,0,0,1,.76,8.8,22,22,0,0,0-1.51-8.85c.28,2.24,1.2,4.22.71,8.47A27.4,27.4,0,0,0,141,36.88a21.71,21.71,0,0,1,.44,7.83,49.23,49.23,0,0,0-.86-9.38,28.42,28.42,0,0,1-.5,9.3,34.81,34.81,0,0,0-.34-10.11,26.76,26.76,0,0,1-1,9.93,37,37,0,0,0,.42-11.11c-.06,3.17,0,6.34-1.41,9.43.91-3.42.69-6.64.54-9.86a33.61,33.61,0,0,1-1.82,9.69,58.13,58.13,0,0,0,1.18-10.87,111.61,111.61,0,0,1-2,11.1,53.21,53.21,0,0,0,1-11,39.94,39.94,0,0,1-2.41,9,38.7,38.7,0,0,0,1.62-9.79,33.51,33.51,0,0,1-2.46,8.89,43.69,43.69,0,0,0,1.7-10,48.36,48.36,0,0,1-2.46,9.93,39.82,39.82,0,0,0,1.47-11.42,37.78,37.78,0,0,1-2.22,10.14A35.7,35.7,0,0,0,133.25,28c-.43,2.76-.73,5.55-2,8.06a18,18,0,0,0,1.28-8.39,21.62,21.62,0,0,1-2.37,9.46,19.83,19.83,0,0,0,1.68-9.7,24.9,24.9,0,0,1-2.09,8A20.93,20.93,0,0,0,131.07,28a25.13,25.13,0,0,1-2.71,8.78c1.38-3.46,2.33-6.65,1.76-8.84a18.82,18.82,0,0,1-1.73,6.36,16.39,16.39,0,0,0,1.09-7.45c-.18,2.18-.28,4.39-1.79,6.17a5.49,5.49,0,0,0,.82-5,18,18,0,0,1-1.9,6A15.92,15.92,0,0,0,127.94,27a13.7,13.7,0,0,1-1.62,5.51,9.43,9.43,0,0,0,.82-5.09,17.39,17.39,0,0,1-1.91,6.16A19.26,19.26,0,0,0,126.65,27a9.81,9.81,0,0,1-1.55,4.47,10.89,10.89,0,0,0,.84-5.37,10.14,10.14,0,0,1-1.42,4.38,12.29,12.29,0,0,0,1-4.89A10,10,0,0,1,123.33,31a10.06,10.06,0,0,0,1.27-5.15,4.64,4.64,0,0,1-1,2.5,12.66,12.66,0,0,0,.61-4.72,22.36,22.36,0,0,1-3,8.85,18.48,18.48,0,0,0,1.66-7.32A8.19,8.19,0,0,1,121.34,29c1-2.14,1.15-4.41,1.43-6.67a18.77,18.77,0,0,1-2.69,7.35,17.91,17.91,0,0,0,1.67-6.37A20.73,20.73,0,0,1,119,30.21a22.71,22.71,0,0,0,2.21-9,17.83,17.83,0,0,1-2.18,6.34,21.34,21.34,0,0,0,1.33-7.05A21.38,21.38,0,0,1,117.82,28a20.65,20.65,0,0,0,1.66-7.32c-.32,2-.71,4-1.66,5.13A15.33,15.33,0,0,0,119.07,20a10.09,10.09,0,0,1-1.68,4.46,10.45,10.45,0,0,0,1-4.79c-.2,1.61-.47,3.2-1.8,4.36,1.36-1.77,1.32-4,1.47-6.19-.29,1.68-.59,3.35-1.62,4.47a8.44,8.44,0,0,0,.94-4.89,14.12,14.12,0,0,1-2,6.25A14.66,14.66,0,0,0,117,17c-.19,1.37-.29,2.77-1.39,3.82a7.62,7.62,0,0,0,.82-4A5.64,5.64,0,0,1,115,20C117,14.54,113.9,13.62,113.32,10.45Z"/><path class="cls-2" d="M113.32,10.45c-10.93,9-20.8,15.1-24.12,28.61a19.16,19.16,0,0,0-.43,7.58,20.47,20.47,0,0,1,1.06-7.75c-.18,1.94-.91,3.78-.39,7.29a25.12,25.12,0,0,1,1.08-8.45,18.92,18.92,0,0,0-.18,6.7,43.52,43.52,0,0,1,.5-8.09,23.24,23.24,0,0,0,.65,7.77,29.85,29.85,0,0,1,0-8.61,21.4,21.4,0,0,0,1.08,8.23A30.53,30.53,0,0,1,92,34.4c.13,2.67.19,5.36,1.42,7.73a25.64,25.64,0,0,1-.7-8.25,25.62,25.62,0,0,0,1.78,7.88,46.16,46.16,0,0,1-1.26-9,85.4,85.4,0,0,0,2,9A42.72,42.72,0,0,1,94.1,32.7a29.34,29.34,0,0,0,2.25,7.17,29.9,29.9,0,0,1-1.61-8A24.52,24.52,0,0,0,97,39a33.63,33.63,0,0,1-1.68-8.14,35.85,35.85,0,0,0,2.33,8,31.38,31.38,0,0,1-1.52-9.4,28.39,28.39,0,0,0,2.13,8.18,28.07,28.07,0,0,1-1.4-8.7c.43,2.26.75,4.57,1.91,6.46a14.14,14.14,0,0,1-1.29-6.87A16,16,0,0,0,99.76,36a15.3,15.3,0,0,1-1.66-7.9,18.29,18.29,0,0,0,2,6.36,16,16,0,0,1-1.32-6,18.14,18.14,0,0,0,2.51,6.94c-1.25-2.69-2.14-5.21-1.7-7.16a13.81,13.81,0,0,0,1.62,5.08,12.79,12.79,0,0,1-1.11-6.11c.21,1.81.34,3.66,1.66,4.9a4.31,4.31,0,0,1-.81-4.08,13,13,0,0,0,1.75,4.71A12.23,12.23,0,0,1,101.37,27a10,10,0,0,0,1.5,4.38,7.34,7.34,0,0,1-.82-4.16,12.55,12.55,0,0,0,1.77,4.87,14.49,14.49,0,0,1-1.37-5.31,7,7,0,0,0,1.42,3.51A8.47,8.47,0,0,1,103,25.9a7.29,7.29,0,0,0,1.31,3.46,9.32,9.32,0,0,1-1-4,7,7,0,0,0,2,4.25,7.48,7.48,0,0,1-1.2-4.13,3.22,3.22,0,0,0,.95,1.93,10,10,0,0,1-.63-3.88,15.94,15.94,0,0,0,2.79,6.95,13.82,13.82,0,0,1-1.59-5.9,5.77,5.77,0,0,0,1.32,3,15.42,15.42,0,0,1-1.37-5.39,13.27,13.27,0,0,0,2.45,5.74,13.2,13.2,0,0,1-1.57-5.09A14.49,14.49,0,0,0,109,28.18,16.86,16.86,0,0,1,106.89,21a12.66,12.66,0,0,0,2,5,16.28,16.28,0,0,1-1.29-5.73A15.23,15.23,0,0,0,110,26.13a15.51,15.51,0,0,1-1.59-5.9c.32,1.67.7,3.23,1.53,4a11.55,11.55,0,0,1-1.2-4.7,7.12,7.12,0,0,0,1.53,3.48,7.9,7.9,0,0,1-1-3.88c.21,1.33.47,2.62,1.63,3.37-1.2-1.26-1.21-3.16-1.39-5,.29,1.37.58,2.73,1.48,3.49a6.43,6.43,0,0,1-.91-4A10.13,10.13,0,0,0,112,22a10.92,10.92,0,0,1-1.54-5.42c.2,1.12.31,2.29,1.27,3a5.77,5.77,0,0,1-.79-3.27,3.93,3.93,0,0,0,1.22,2.51C110.28,14.56,112.92,13.24,113.32,10.45Z"/><path class="cls-2" d="M113.32,10.45c9.89,11.12,16.19,21.8,17.56,41.69.18,2.64,0,5.72,1.39,9.43a22.25,22.25,0,0,1-2-9.15,42.45,42.45,0,0,0,.24,8.44,29.79,29.79,0,0,1-.58-9.94,21.08,21.08,0,0,0-.47,6.17,20.83,20.83,0,0,1,.54-7.72,21.89,21.89,0,0,0-1.14,6.41,24.2,24.2,0,0,1,.7-7.59,26.76,26.76,0,0,0-1.4,5.78,22.76,22.76,0,0,1,1.27-7.1,27.58,27.58,0,0,0-2,7.75,26.83,26.83,0,0,1,1.93-9.47,38,38,0,0,0-2.82,9,63.2,63.2,0,0,1,2.19-9.49,27.49,27.49,0,0,0-2.3,7.78,30.1,30.1,0,0,1,1.49-8.28A21.82,21.82,0,0,0,126,50.7,34.54,34.54,0,0,1,127.54,43a38.87,38.87,0,0,0-2.06,6.78,36.45,36.45,0,0,1,1.75-8.15c-1.92,1.69-3.18,4.32-4.39,7A46.27,46.27,0,0,1,127.45,39a24.84,24.84,0,0,0-4.85,8,54.55,54.55,0,0,1,4.57-9.43,31.54,31.54,0,0,0-4.44,6.91,38.65,38.65,0,0,1,4.4-8.47,49.46,49.46,0,0,0-5.49,8.74,59.64,59.64,0,0,1,4.71-8.9,42.3,42.3,0,0,0-4.58,7.2,32,32,0,0,1,4-7,34,34,0,0,0-5.37,7.39,37.56,37.56,0,0,1,4.68-7.82,18.45,18.45,0,0,0-4,5.74,26.44,26.44,0,0,1,3.54-6.67,27.94,27.94,0,0,0-3.74,5.19,21.49,21.49,0,0,1,3-4.89,20.52,20.52,0,0,0-4.1,5.08,33.83,33.83,0,0,1,4.84-7.33,25,25,0,0,0-4.67,5.86,14.51,14.51,0,0,1,3.32-5c-1.75,1.07-3.1,3.15-4.42,5.27a31.58,31.58,0,0,1,4.72-7.08A16.54,16.54,0,0,0,119.27,37a14.46,14.46,0,0,1,2.91-5,12.4,12.4,0,0,0-3.1,3.82,18,18,0,0,1,3.83-5.36A22.36,22.36,0,0,0,118,35.69a21.48,21.48,0,0,1,3.85-5.25,10.6,10.6,0,0,0-3,3.14,26,26,0,0,1,3.36-5.36A29.3,29.3,0,0,0,116,35.66c1.45-2.58,2.87-5.21,4.84-7.08A8.63,8.63,0,0,0,117,32.82a15.72,15.72,0,0,1,4.06-6.23,24.83,24.83,0,0,0-5.19,6.07,16.55,16.55,0,0,1,4.2-6.11c-2.16,1.21-3.68,3.51-5.13,5.92A30,30,0,0,1,119.82,25a18.84,18.84,0,0,0-4.14,5.26,21.16,21.16,0,0,1,3.38-6,24.59,24.59,0,0,0-4.45,5.69,44.92,44.92,0,0,1,4.29-6.84,23.89,23.89,0,0,0-3.73,5,22.3,22.3,0,0,1,3.23-5.33,13.5,13.5,0,0,0-3.21,3.93,14.83,14.83,0,0,1,3.19-5.15,10.45,10.45,0,0,0-3.69,4.32,21.81,21.81,0,0,1,3.42-5.42A14.55,14.55,0,0,0,115,24.33a23.06,23.06,0,0,1,2.64-4.26,20,20,0,0,0-3.83,4.76,18.79,18.79,0,0,1,4-5.69,7.06,7.06,0,0,0-3.12,3.35,7.47,7.47,0,0,1,2.44-3.72c-.92-.47-2,1.44-2.64,2.74C115.65,17.14,113.47,15.78,113.32,10.45Z"/><path class="cls-2" d="M113.32,10.45c11.13-2.73,20.47-6.7,27.53.39A11.21,11.21,0,0,1,143.76,16a10.2,10.2,0,0,0-3.43-4.8c.8,1.28,2,2,2.78,5A13.06,13.06,0,0,0,139.43,11a11.46,11.46,0,0,1,2.42,4.78,25.11,25.11,0,0,0-3.13-5.53,17.26,17.26,0,0,1,2.17,6.28,19,19,0,0,0-3-6.3,17.11,17.11,0,0,1,2,7,22,22,0,0,0-2.72-7.4,16.12,16.12,0,0,1,1.59,6.91A19,19,0,0,0,136.51,10a24.12,24.12,0,0,1,1.38,7.32,37.75,37.75,0,0,0-2.14-7.69A79.55,79.55,0,0,1,137.37,18a33.76,33.76,0,0,0-2.3-7.65,31.53,31.53,0,0,1,.79,7.21,26.91,26.91,0,0,0-1.55-7.27,26.72,26.72,0,0,1,.72,7.18,30.66,30.66,0,0,0-1.54-7.43,37.31,37.31,0,0,1,1,7.86,26.38,26.38,0,0,0-2.09-8.22,28.17,28.17,0,0,1,1.23,7.84,23.76,23.76,0,0,0-1.94-7.61,19.83,19.83,0,0,1,.8,6.39c-.13-3.65-.76-4.94-1.4-6.16a16.74,16.74,0,0,1,.94,7.5c0-3.15-.45-5.61-1.48-7.24a19.61,19.61,0,0,1,.73,6.36,14.86,14.86,0,0,0-1.09-5.59,20.81,20.81,0,0,1,.52,7.26c0-3-.21-5.67-1.19-6.73a14.93,14.93,0,0,1,.54,5.13,11.14,11.14,0,0,0-1.27-5.44,8.22,8.22,0,0,1,.45,5c.34-2.18-.14-3.07-.79-3.7a15,15,0,0,1,.32,5,11.26,11.26,0,0,0-1-5.33,11.13,11.13,0,0,1,.39,4.51,6.46,6.46,0,0,0-.82-3.76,14.44,14.44,0,0,1,.36,5.1,14.3,14.3,0,0,0-.81-5.08,8.48,8.48,0,0,1,.15,3.8,7.46,7.46,0,0,0-.88-4,8.54,8.54,0,0,1,.22,3.67,9,9,0,0,0-.64-3.74,9,9,0,0,1,0,4.83,7.74,7.74,0,0,0-.53-4.08,4.31,4.31,0,0,1,0,2.24,8.45,8.45,0,0,0-.86-3.4,19.21,19.21,0,0,1,.32,7.5,14,14,0,0,0-.85-5.7,7.29,7.29,0,0,1,0,3.31A15.15,15.15,0,0,0,123,12.5a16.53,16.53,0,0,1,.15,6.33,14.05,14.05,0,0,0-.58-5.09,18.81,18.81,0,0,1,0,6,17.47,17.47,0,0,0-.93-7.11,15.43,15.43,0,0,1,.23,5.37,15.3,15.3,0,0,0-1-5.33,18.37,18.37,0,0,1,.29,6.39,15.41,15.41,0,0,0-.85-5.7,9.5,9.5,0,0,1,.26,4.29,11.36,11.36,0,0,0-.72-4.49,9,9,0,0,1,.06,3.87,7.67,7.67,0,0,0-.62-3.68,5.76,5.76,0,0,1-.05,3.88c.45-2-.19-3.37-.68-4.85a7.56,7.56,0,0,1,.11,3.84,6.08,6.08,0,0,0-.68-3.7,11.92,11.92,0,0,1,.3,5.24,11.19,11.19,0,0,0-.72-5.31,5.16,5.16,0,0,1,.09,3.28,5.57,5.57,0,0,0-.53-3.09,5.21,5.21,0,0,1,0,2.89C117,10.87,114.58,12.15,113.32,10.45Z"/><path class="cls-2" d="M113.32,10.45C104.8,2,97.53-2.37,86.95,1.31c-1.41.49-2.94,1.47-5.23.89A6.18,6.18,0,0,0,87,2,11.9,11.9,0,0,1,82.57,4a8.24,8.24,0,0,0,5.26-2,7,7,0,0,1-3,2.16,6.88,6.88,0,0,0,3.8-2.66,9,9,0,0,1-3,3,8.26,8.26,0,0,0,3.69-2.8,12.7,12.7,0,0,1-2.56,3.13A9.36,9.36,0,0,0,90,1.52,13.78,13.78,0,0,1,86.66,5.9,11.66,11.66,0,0,0,91,1.2a21.29,21.29,0,0,1-3.79,5.59,29.23,29.23,0,0,0,4.24-5,14.81,14.81,0,0,1-3.33,4.69,12.38,12.38,0,0,0,3.82-3.89,11.91,11.91,0,0,1-2.81,4,14.68,14.68,0,0,0,3.51-3.82A21.34,21.34,0,0,1,89.7,6.87a16.18,16.18,0,0,0,3.68-4.16,21.34,21.34,0,0,1-2.31,6.87,37,37,0,0,0,3.58-7.8,24.46,24.46,0,0,1-2.73,7.68,43.71,43.71,0,0,0,3.53-7.72,33,33,0,0,1-2.28,6.91,33,33,0,0,0,3.09-7.27A50.73,50.73,0,0,1,93.34,10a52,52,0,0,0,3.22-7.75,43.84,43.84,0,0,1-2.39,7.14A29.64,29.64,0,0,0,96.65,3,40,40,0,0,1,94.39,11a36.78,36.78,0,0,0,2.67-7.43,21,21,0,0,1-1.79,6.14,23,23,0,0,0,2.41-5.82,32.54,32.54,0,0,1-1.6,5.65,21.75,21.75,0,0,0,1.64-4.76,26.55,26.55,0,0,1-1.44,6,36.4,36.4,0,0,0,2.38-7.48A32,32,0,0,1,97,10.29a15.67,15.67,0,0,0,1.61-5.12,21.23,21.23,0,0,1-1.44,6.45,34.23,34.23,0,0,0,2.28-7.27A21.65,21.65,0,0,1,98,10.63,13.78,13.78,0,0,0,99.72,6a16.21,16.21,0,0,1-1.07,4.56,21,21,0,0,0,1.66-5.8,33.22,33.22,0,0,1-1.26,7,25.53,25.53,0,0,0,1.59-5.8,16,16,0,0,1-.75,4.27,26.58,26.58,0,0,0,1.79-5.27,39.33,39.33,0,0,1-2,9.13,32.81,32.81,0,0,0,2.25-7.41,12,12,0,0,1-1.09,5.46,16.66,16.66,0,0,0,2-6.29,33.71,33.71,0,0,1-1.64,7.55,18.41,18.41,0,0,0,1.93-6.43,21.52,21.52,0,0,1-1.57,7.44A31.52,31.52,0,0,0,104,6.83,23.76,23.76,0,0,1,102.5,13a19.57,19.57,0,0,0,2.11-5.46A30.94,30.94,0,0,1,103,14.1a46,46,0,0,0,2.29-6.72,28.79,28.79,0,0,1-1.5,5.59,22.07,22.07,0,0,0,1.81-5.1,17.57,17.57,0,0,1-1.1,4.71,15,15,0,0,0,1.73-5A14.13,14.13,0,0,1,105,12.94a22.44,22.44,0,0,0,1.8-5.34,18.65,18.65,0,0,1-1.1,4.56A23.38,23.38,0,0,0,107.15,8a25.76,25.76,0,0,1-1.35,5.64,21.54,21.54,0,0,0,1.76-6.14,10.14,10.14,0,0,1-.83,4.45,7.88,7.88,0,0,0,1.21-3.78c.51.93-.17,2.64-.65,3.75C109.23,9.54,110.55,11.68,113.32,10.45Z"/><path class="cls-2" d="M113.32,10.45c-10,0-18.38-1.46-24.34,6.36A12.64,12.64,0,0,0,86.62,22a11.93,11.93,0,0,1,2.84-5c-.65,1.3-1.65,2.21-2.25,5.05a15.16,15.16,0,0,1,3-5.49,12.8,12.8,0,0,0-1.95,4.76,28.46,28.46,0,0,1,2.54-5.57,18.18,18.18,0,0,0-1.67,6,20.9,20.9,0,0,1,2.38-6.22,17.61,17.61,0,0,0-1.5,6.62,23.36,23.36,0,0,1,2.11-7.14A16.11,16.11,0,0,0,91,21.55a20,20,0,0,1,1.77-6.4,23.58,23.58,0,0,0-.92,6.78,38.61,38.61,0,0,1,1.58-7.27,78.13,78.13,0,0,0-1.1,7.74,34.91,34.91,0,0,1,1.72-7.27,29.52,29.52,0,0,0-.41,6.55,26.71,26.71,0,0,1,1.07-6.77,24.91,24.91,0,0,0-.35,6.51,30.29,30.29,0,0,1,1.06-6.91,35.31,35.31,0,0,0-.57,7.17,26.74,26.74,0,0,1,1.52-7.73,27.07,27.07,0,0,0-.77,7.21A24,24,0,0,1,97,14a18.73,18.73,0,0,0-.45,5.83,12.21,12.21,0,0,1,1-5.75,15.81,15.81,0,0,0-.53,6.84,13.7,13.7,0,0,1,1-6.73A18.38,18.38,0,0,0,97.68,20a14.61,14.61,0,0,1,.74-5.18,19.06,19.06,0,0,0-.17,6.54c-.13-2.7,0-5.06.78-6.21a13.94,13.94,0,0,0-.27,4.65,11.16,11.16,0,0,1,.9-5.09,7.62,7.62,0,0,0-.2,4.55,3.72,3.72,0,0,1,.55-3.45,13.73,13.73,0,0,0-.08,4.47,11.09,11.09,0,0,1,.67-4.93,10.28,10.28,0,0,0-.16,4.07,6.44,6.44,0,0,1,.57-3.51,13.21,13.21,0,0,0-.11,4.59,13.77,13.77,0,0,1,.51-4.67,7.61,7.61,0,0,0,0,3.4,7.45,7.45,0,0,1,.62-3.69,7.76,7.76,0,0,0,0,3.29,8.71,8.71,0,0,1,.41-3.45,7.94,7.94,0,0,0,.21,4.27,7.33,7.33,0,0,1,.3-3.72,3.74,3.74,0,0,0,.12,2,8.53,8.53,0,0,1,.63-3.2,17.29,17.29,0,0,0,0,6.71,13.34,13.34,0,0,1,.52-5.23,6.46,6.46,0,0,0,.1,2.94,14.62,14.62,0,0,1,.52-4.73A14.72,14.72,0,0,0,105,20a13.2,13.2,0,0,1,.31-4.63,16.52,16.52,0,0,0,.24,5.35,16.55,16.55,0,0,1,.53-6.49,13.85,13.85,0,0,0,0,4.8,15,15,0,0,1,.67-4.93,16.54,16.54,0,0,0,0,5.71,14.81,14.81,0,0,1,.52-5.23,8.63,8.63,0,0,0-.05,3.85,11,11,0,0,1,.46-4.13,8,8,0,0,0,.1,3.44,7.42,7.42,0,0,1,.4-3.39,5,5,0,0,0,.2,3.42c-.48-1.63,0-3,.4-4.44a6.74,6.74,0,0,0,.06,3.42,5.93,5.93,0,0,1,.45-3.43,10.82,10.82,0,0,0,0,4.7,10.64,10.64,0,0,1,.42-4.86,4.62,4.62,0,0,0,.06,2.92,5.39,5.39,0,0,1,.35-2.85,4.53,4.53,0,0,0,.16,2.55C110.11,11.62,112.28,12.23,113.32,10.45Z"/><path class="cls-3" d="M90.27,96.92H84.8c.06.29.11.57.15.85l-5.86.75v.22H94.31v-.22l-3.58-.75Z"/><path class="cls-2" d="M91.3,98.58c-.59-28,4.9-43.3,19.59-75.63,2.23.89,2-5.08,3.3-7.21L113.72,11l-2.59,1.51c-1.83,3.37-1.57,6.69-3.21,9.86-13.68,26.38-21,46.75-22.08,71.82.13,1.34.25,2.42.35,4.42Z"/><path class="cls-2" d="M86.62,94.15A204.21,204.21,0,0,0,73.29,41.26c-.92-2.36-.43-4.77-1.47-7.29L70.06,32.6l-.77,3.21c.78,1.6.08,6,1.79,5.57,7.37,22.36,10.48,37.2,10.54,57.2h4.88C86.52,96.58,86.56,95.48,86.62,94.15Z"/></g></svg>